<?xml version="1.0" encoding="UTF-8" standalone="no"?>
<!DOCTYPE svg PUBLIC "-//W3C//DTD SVG 1.1//EN"
 "http://www.w3.org/Graphics/SVG/1.1/DTD/svg11.dtd">
<!-- Generated by graphviz version 2.36.0 (20140111.2315)
 -->
<!-- Title: AllpassnExample Pages: 1 -->
<svg width="480pt" height="476pt"
 viewBox="0.00 0.00 480.00 476.00" xmlns="http://www.w3.org/2000/svg" xmlns:xlink="http://www.w3.org/1999/xlink">
<g id="graph0" class="graph" transform="scale(1 1) rotate(0) translate(4 472)">
<title>AllpassnExample</title>
<polygon fill="white" stroke="none" points="-4,4 -4,-472 476,-472 476,4 -4,4"/>
<!-- 1.000000 -->
<g id="node1" class="node"><title>1.000000</title>
<ellipse fill="none" stroke="black" cx="44" cy="-450" rx="44.2946" ry="18"/>
<text text-anchor="middle" x="44" y="-446.3" font-family="Times,serif" font-size="14.00">1.000000</text>
</g>
<!-- Dust_1 -->
<g id="node2" class="node"><title>Dust_1</title>
<ellipse fill="none" stroke="black" cx="44" cy="-378" rx="36.096" ry="18"/>
<text text-anchor="middle" x="44" y="-374.3" font-family="Times,serif" font-size="14.00">Dust_1</text>
</g>
<!-- 1.000000&#45;&gt;Dust_1 -->
<g id="edge1" class="edge"><title>1.000000&#45;&gt;Dust_1</title>
<path fill="none" stroke="black" d="M44,-431.697C44,-423.983 44,-414.712 44,-406.112"/>
<polygon fill="black" stroke="black" points="47.5001,-406.104 44,-396.104 40.5001,-406.104 47.5001,-406.104"/>
</g>
<!-- BinaryOpUGen_2 -->
<g id="node3" class="node"><title>BinaryOpUGen_2</title>
<ellipse fill="none" stroke="black" cx="93" cy="-306" rx="75.0904" ry="18"/>
<text text-anchor="middle" x="93" y="-302.3" font-family="Times,serif" font-size="14.00">BinaryOpUGen_2</text>
</g>
<!-- Dust_1&#45;&gt;BinaryOpUGen_2 -->
<g id="edge2" class="edge"><title>Dust_1&#45;&gt;BinaryOpUGen_2</title>
<path fill="none" stroke="black" d="M55.3647,-360.765C61.2523,-352.354 68.5767,-341.89 75.1951,-332.436"/>
<polygon fill="black" stroke="black" points="78.1459,-334.323 81.0133,-324.124 72.4113,-330.309 78.1459,-334.323"/>
</g>
<!-- Decay_3 -->
<g id="node5" class="node"><title>Decay_3</title>
<ellipse fill="none" stroke="black" cx="93" cy="-234" rx="42.3701" ry="18"/>
<text text-anchor="middle" x="93" y="-230.3" font-family="Times,serif" font-size="14.00">Decay_3</text>
</g>
<!-- BinaryOpUGen_2&#45;&gt;Decay_3 -->
<g id="edge4" class="edge"><title>BinaryOpUGen_2&#45;&gt;Decay_3</title>
<path fill="none" stroke="black" d="M93,-287.697C93,-279.983 93,-270.712 93,-262.112"/>
<polygon fill="black" stroke="black" points="96.5001,-262.104 93,-252.104 89.5001,-262.104 96.5001,-262.104"/>
</g>
<!-- 0.500000 -->
<g id="node4" class="node"><title>0.500000</title>
<ellipse fill="none" stroke="black" cx="143" cy="-378" rx="44.2946" ry="18"/>
<text text-anchor="middle" x="143" y="-374.3" font-family="Times,serif" font-size="14.00">0.500000</text>
</g>
<!-- 0.500000&#45;&gt;BinaryOpUGen_2 -->
<g id="edge3" class="edge"><title>0.500000&#45;&gt;BinaryOpUGen_2</title>
<path fill="none" stroke="black" d="M131.151,-360.411C125.137,-351.992 117.704,-341.585 111.001,-332.201"/>
<polygon fill="black" stroke="black" points="113.772,-330.059 105.112,-323.956 108.076,-334.128 113.772,-330.059"/>
</g>
<!-- BinaryOpUGen_4 -->
<g id="node7" class="node"><title>BinaryOpUGen_4</title>
<ellipse fill="none" stroke="black" cx="202" cy="-162" rx="75.0904" ry="18"/>
<text text-anchor="middle" x="202" y="-158.3" font-family="Times,serif" font-size="14.00">BinaryOpUGen_4</text>
</g>
<!-- Decay_3&#45;&gt;BinaryOpUGen_4 -->
<g id="edge6" class="edge"><title>Decay_3&#45;&gt;BinaryOpUGen_4</title>
<path fill="none" stroke="black" d="M115.321,-218.666C130.596,-208.856 151.125,-195.672 168.371,-184.597"/>
<polygon fill="black" stroke="black" points="170.521,-187.375 177.044,-179.026 166.739,-181.485 170.521,-187.375"/>
</g>
<!-- 0.200000 -->
<g id="node6" class="node"><title>0.200000</title>
<ellipse fill="none" stroke="black" cx="314" cy="-306" rx="44.2946" ry="18"/>
<text text-anchor="middle" x="314" y="-302.3" font-family="Times,serif" font-size="14.00">0.200000</text>
</g>
<!-- 0.200000&#45;&gt;Decay_3 -->
<g id="edge5" class="edge"><title>0.200000&#45;&gt;Decay_3</title>
<path fill="none" stroke="black" d="M279.748,-294.537C245.372,-283.985 190.929,-267.135 144,-252 140.936,-251.012 137.771,-249.981 134.588,-248.937"/>
<polygon fill="black" stroke="black" points="135.664,-245.607 125.071,-245.797 133.471,-252.254 135.664,-245.607"/>
</g>
<!-- AllpassN_5 -->
<g id="node9" class="node"><title>AllpassN_5</title>
<ellipse fill="none" stroke="black" cx="314" cy="-90" rx="51.4931" ry="18"/>
<text text-anchor="middle" x="314" y="-86.3" font-family="Times,serif" font-size="14.00">AllpassN_5</text>
</g>
<!-- 0.200000&#45;&gt;AllpassN_5 -->
<g id="edge9" class="edge"><title>0.200000&#45;&gt;AllpassN_5</title>
<path fill="none" stroke="black" d="M310.122,-287.849C306.587,-250.832 306.315,-163.181 309.308,-118.386"/>
<polygon fill="black" stroke="black" points="312.811,-118.478 310.115,-108.232 305.833,-117.924 312.811,-118.478"/>
</g>
<!-- 0.200000&#45;&gt;AllpassN_5 -->
<g id="edge10" class="edge"><title>0.200000&#45;&gt;AllpassN_5</title>
<path fill="none" stroke="black" d="M317.878,-287.849C321.413,-250.832 321.685,-163.181 318.692,-118.386"/>
<polygon fill="black" stroke="black" points="322.167,-117.924 317.885,-108.232 315.189,-118.478 322.167,-117.924"/>
</g>
<!-- BinaryOpUGen_4&#45;&gt;AllpassN_5 -->
<g id="edge8" class="edge"><title>BinaryOpUGen_4&#45;&gt;AllpassN_5</title>
<path fill="none" stroke="black" d="M227.695,-144.941C243.644,-134.973 264.286,-122.071 281.383,-111.386"/>
<polygon fill="black" stroke="black" points="283.332,-114.295 289.957,-106.027 279.622,-108.359 283.332,-114.295"/>
</g>
<!-- WhiteNoise_0 -->
<g id="node8" class="node"><title>WhiteNoise_0</title>
<ellipse fill="none" stroke="black" cx="215" cy="-234" rx="61.6163" ry="18"/>
<text text-anchor="middle" x="215" y="-230.3" font-family="Times,serif" font-size="14.00">WhiteNoise_0</text>
</g>
<!-- WhiteNoise_0&#45;&gt;BinaryOpUGen_4 -->
<g id="edge7" class="edge"><title>WhiteNoise_0&#45;&gt;BinaryOpUGen_4</title>
<path fill="none" stroke="black" d="M211.787,-215.697C210.354,-207.983 208.632,-198.712 207.035,-190.112"/>
<polygon fill="black" stroke="black" points="210.444,-189.297 205.177,-180.104 203.561,-190.575 210.444,-189.297"/>
</g>
<!-- Out_6 -->
<g id="node12" class="node"><title>Out_6</title>
<ellipse fill="none" stroke="black" cx="371" cy="-18" rx="32.2457" ry="18"/>
<text text-anchor="middle" x="371" y="-14.3" font-family="Times,serif" font-size="14.00">Out_6</text>
</g>
<!-- AllpassN_5&#45;&gt;Out_6 -->
<g id="edge13" class="edge"><title>AllpassN_5&#45;&gt;Out_6</title>
<path fill="none" stroke="black" d="M327.508,-72.411C334.71,-63.567 343.697,-52.5305 351.629,-42.7894"/>
<polygon fill="black" stroke="black" points="354.381,-44.9525 357.981,-34.9881 348.953,-40.5325 354.381,-44.9525"/>
</g>
<!-- 3.000000 -->
<g id="node10" class="node"><title>3.000000</title>
<ellipse fill="none" stroke="black" cx="395" cy="-162" rx="44.2946" ry="18"/>
<text text-anchor="middle" x="395" y="-158.3" font-family="Times,serif" font-size="14.00">3.000000</text>
</g>
<!-- 3.000000&#45;&gt;AllpassN_5 -->
<g id="edge11" class="edge"><title>3.000000&#45;&gt;AllpassN_5</title>
<path fill="none" stroke="black" d="M377.023,-145.465C366.165,-136.081 352.14,-123.96 340.078,-113.536"/>
<polygon fill="black" stroke="black" points="342.343,-110.868 332.488,-106.977 337.765,-116.164 342.343,-110.868"/>
</g>
<!-- 0.000000 -->
<g id="node11" class="node"><title>0.000000</title>
<ellipse fill="none" stroke="black" cx="428" cy="-90" rx="44.2946" ry="18"/>
<text text-anchor="middle" x="428" y="-86.3" font-family="Times,serif" font-size="14.00">0.000000</text>
</g>
<!-- 0.000000&#45;&gt;Out_6 -->
<g id="edge12" class="edge"><title>0.000000&#45;&gt;Out_6</title>
<path fill="none" stroke="black" d="M414.78,-72.7646C407.483,-63.8035 398.289,-52.5124 390.212,-42.5936"/>
<polygon fill="black" stroke="black" points="392.785,-40.2102 383.756,-34.6658 387.357,-44.6302 392.785,-40.2102"/>
</g>
</g>
</svg>
