<?xml version="1.0" encoding="UTF-8" standalone="no"?>
<!DOCTYPE svg PUBLIC "-//W3C//DTD SVG 1.1//EN"
 "http://www.w3.org/Graphics/SVG/1.1/DTD/svg11.dtd">
<!-- Generated by graphviz version 2.39.20150416.0445 (20150416.0445)
 -->
<!-- Title: AllpassnExample Pages: 1 -->
<svg width="489pt" height="476pt"
 viewBox="0.00 0.00 488.69 476.00" xmlns="http://www.w3.org/2000/svg" xmlns:xlink="http://www.w3.org/1999/xlink">
<g id="graph0" class="graph" transform="scale(1 1) rotate(0) translate(4 472)">
<title>AllpassnExample</title>
<polygon fill="white" stroke="transparent" points="-4,4 -4,-472 484.692,-472 484.692,4 -4,4"/>
<!-- 1.000000 -->
<g id="node1" class="node"><title>1.000000</title>
<ellipse fill="none" stroke="black" cx="44.846" cy="-18" rx="44.6926" ry="18"/>
<text text-anchor="middle" x="44.846" y="-14.3" font-family="Times,serif" font-size="14.00">1.000000</text>
</g>
<!-- Dust_1 -->
<g id="node2" class="node"><title>Dust_1</title>
<ellipse fill="none" stroke="black" cx="44.846" cy="-90" rx="37.0935" ry="18"/>
<text text-anchor="middle" x="44.846" y="-86.3" font-family="Times,serif" font-size="14.00">Dust_1</text>
</g>
<!-- 1.000000&#45;&gt;Dust_1 -->
<g id="edge1" class="edge"><title>1.000000&#45;&gt;Dust_1</title>
<path fill="none" stroke="black" d="M44.846,-36.1686C44.846,-43.869 44.846,-53.0257 44.846,-61.5834"/>
<polygon fill="black" stroke="black" points="41.3461,-61.5867 44.846,-71.5867 48.3461,-61.5868 41.3461,-61.5867"/>
</g>
<!-- BinaryOpUGen_2 -->
<g id="node4" class="node"><title>BinaryOpUGen_2</title>
<ellipse fill="none" stroke="black" cx="94.846" cy="-162" rx="77.1866" ry="18"/>
<text text-anchor="middle" x="94.846" y="-158.3" font-family="Times,serif" font-size="14.00">BinaryOpUGen_2</text>
</g>
<!-- Dust_1&#45;&gt;BinaryOpUGen_2 -->
<g id="edge3" class="edge"><title>Dust_1&#45;&gt;BinaryOpUGen_2</title>
<path fill="none" stroke="black" d="M56.6953,-107.063C62.6208,-115.596 69.9241,-126.112 76.5493,-135.653"/>
<polygon fill="black" stroke="black" points="73.8052,-137.837 82.384,-144.055 79.5548,-133.845 73.8052,-137.837"/>
</g>
<!-- 0.500000 -->
<g id="node3" class="node"><title>0.500000</title>
<ellipse fill="none" stroke="black" cx="144.846" cy="-90" rx="44.6926" ry="18"/>
<text text-anchor="middle" x="144.846" y="-86.3" font-family="Times,serif" font-size="14.00">0.500000</text>
</g>
<!-- 0.500000&#45;&gt;BinaryOpUGen_2 -->
<g id="edge2" class="edge"><title>0.500000&#45;&gt;BinaryOpUGen_2</title>
<path fill="none" stroke="black" d="M132.742,-107.429C126.856,-115.905 119.657,-126.272 113.12,-135.685"/>
<polygon fill="black" stroke="black" points="110.19,-133.769 107.36,-143.979 115.939,-137.762 110.19,-133.769"/>
</g>
<!-- Decay_3 -->
<g id="node6" class="node"><title>Decay_3</title>
<ellipse fill="none" stroke="black" cx="94.846" cy="-234" rx="42.7926" ry="18"/>
<text text-anchor="middle" x="94.846" y="-230.3" font-family="Times,serif" font-size="14.00">Decay_3</text>
</g>
<!-- BinaryOpUGen_2&#45;&gt;Decay_3 -->
<g id="edge5" class="edge"><title>BinaryOpUGen_2&#45;&gt;Decay_3</title>
<path fill="none" stroke="black" d="M94.846,-180.169C94.846,-187.869 94.846,-197.026 94.846,-205.583"/>
<polygon fill="black" stroke="black" points="91.3461,-205.587 94.846,-215.587 98.3461,-205.587 91.3461,-205.587"/>
</g>
<!-- 0.200000 -->
<g id="node5" class="node"><title>0.200000</title>
<ellipse fill="none" stroke="black" cx="318.846" cy="-162" rx="44.6926" ry="18"/>
<text text-anchor="middle" x="318.846" y="-158.3" font-family="Times,serif" font-size="14.00">0.200000</text>
</g>
<!-- 0.200000&#45;&gt;Decay_3 -->
<g id="edge4" class="edge"><title>0.200000&#45;&gt;Decay_3</title>
<path fill="none" stroke="black" d="M282.841,-172.971C247.974,-183.673 193.658,-200.553 146.846,-216 143.761,-217.018 140.579,-218.083 137.379,-219.164"/>
<polygon fill="black" stroke="black" points="136.142,-215.888 127.807,-222.429 138.402,-222.514 136.142,-215.888"/>
</g>
<!-- AllpassN_5 -->
<g id="node10" class="node"><title>AllpassN_5</title>
<ellipse fill="none" stroke="black" cx="318.846" cy="-378" rx="53.8905" ry="18"/>
<text text-anchor="middle" x="318.846" y="-374.3" font-family="Times,serif" font-size="14.00">AllpassN_5</text>
</g>
<!-- 0.200000&#45;&gt;AllpassN_5 -->
<g id="edge9" class="edge"><title>0.200000&#45;&gt;AllpassN_5</title>
<path fill="none" stroke="black" d="M314.9,-180.045C311.442,-217.686 311.182,-304.813 314.122,-349.875"/>
<polygon fill="black" stroke="black" points="310.633,-350.153 314.891,-359.855 317.612,-349.616 310.633,-350.153"/>
</g>
<!-- 0.200000&#45;&gt;AllpassN_5 -->
<g id="edge10" class="edge"><title>0.200000&#45;&gt;AllpassN_5</title>
<path fill="none" stroke="black" d="M322.792,-180.045C326.25,-217.686 326.51,-304.813 323.57,-349.875"/>
<polygon fill="black" stroke="black" points="320.08,-349.616 322.801,-359.855 327.059,-350.153 320.08,-349.616"/>
</g>
<!-- BinaryOpUGen_4 -->
<g id="node8" class="node"><title>BinaryOpUGen_4</title>
<ellipse fill="none" stroke="black" cx="204.846" cy="-306" rx="77.1866" ry="18"/>
<text text-anchor="middle" x="204.846" y="-302.3" font-family="Times,serif" font-size="14.00">BinaryOpUGen_4</text>
</g>
<!-- Decay_3&#45;&gt;BinaryOpUGen_4 -->
<g id="edge7" class="edge"><title>Decay_3&#45;&gt;BinaryOpUGen_4</title>
<path fill="none" stroke="black" d="M118.174,-249.269C133.319,-259.182 153.323,-272.276 170.298,-283.386"/>
<polygon fill="black" stroke="black" points="168.572,-286.44 178.856,-288.988 172.406,-280.583 168.572,-286.44"/>
</g>
<!-- WhiteNoise_0 -->
<g id="node7" class="node"><title>WhiteNoise_0</title>
<ellipse fill="none" stroke="black" cx="218.846" cy="-234" rx="63.0888" ry="18"/>
<text text-anchor="middle" x="218.846" y="-230.3" font-family="Times,serif" font-size="14.00">WhiteNoise_0</text>
</g>
<!-- WhiteNoise_0&#45;&gt;BinaryOpUGen_4 -->
<g id="edge6" class="edge"><title>WhiteNoise_0&#45;&gt;BinaryOpUGen_4</title>
<path fill="none" stroke="black" d="M215.313,-252.169C213.816,-259.869 212.035,-269.026 210.371,-277.583"/>
<polygon fill="black" stroke="black" points="206.899,-277.103 208.426,-287.587 213.771,-278.439 206.899,-277.103"/>
</g>
<!-- BinaryOpUGen_4&#45;&gt;AllpassN_5 -->
<g id="edge11" class="edge"><title>BinaryOpUGen_4&#45;&gt;AllpassN_5</title>
<path fill="none" stroke="black" d="M231.862,-323.063C247.786,-333.12 268.074,-345.933 285.05,-356.655"/>
<polygon fill="black" stroke="black" points="283.262,-359.665 293.586,-362.046 287,-353.747 283.262,-359.665"/>
</g>
<!-- 3.000000 -->
<g id="node9" class="node"><title>3.000000</title>
<ellipse fill="none" stroke="black" cx="400.846" cy="-306" rx="44.6926" ry="18"/>
<text text-anchor="middle" x="400.846" y="-302.3" font-family="Times,serif" font-size="14.00">3.000000</text>
</g>
<!-- 3.000000&#45;&gt;AllpassN_5 -->
<g id="edge8" class="edge"><title>3.000000&#45;&gt;AllpassN_5</title>
<path fill="none" stroke="black" d="M381.827,-322.699C371.141,-332.083 357.626,-343.95 345.857,-354.283"/>
<polygon fill="black" stroke="black" points="343.251,-351.914 338.045,-361.142 347.869,-357.174 343.251,-351.914"/>
</g>
<!-- Out_6 -->
<g id="node11" class="node"><title>Out_6</title>
<polygon fill="none" stroke="black" points="403.846,-468 349.846,-468 349.846,-432 403.846,-432 403.846,-468"/>
<text text-anchor="middle" x="376.846" y="-446.3" font-family="Times,serif" font-size="14.00">Out_6</text>
</g>
<!-- AllpassN_5&#45;&gt;Out_6 -->
<g id="edge12" class="edge"><title>AllpassN_5&#45;&gt;Out_6</title>
<path fill="none" stroke="black" d="M332.886,-395.429C339.784,-403.992 348.236,-414.484 355.88,-423.973"/>
<polygon fill="black" stroke="black" points="353.33,-426.388 362.329,-431.979 358.782,-421.996 353.33,-426.388"/>
</g>
<!-- 0.000000 -->
<g id="node12" class="node"><title>0.000000</title>
<ellipse fill="none" stroke="black" cx="435.846" cy="-378" rx="44.6926" ry="18"/>
<text text-anchor="middle" x="435.846" y="-374.3" font-family="Times,serif" font-size="14.00">0.000000</text>
</g>
<!-- 0.000000&#45;&gt;Out_6 -->
<g id="edge13" class="edge"><title>0.000000&#45;&gt;Out_6</title>
<path fill="none" stroke="black" d="M421.564,-395.429C414.547,-403.992 405.949,-414.484 398.174,-423.973"/>
<polygon fill="black" stroke="black" points="395.244,-422.026 391.613,-431.979 400.658,-426.463 395.244,-422.026"/>
</g>
</g>
</svg>
