<?xml version="1.0" encoding="UTF-8" standalone="no"?>
<!DOCTYPE svg PUBLIC "-//W3C//DTD SVG 1.1//EN"
 "http://www.w3.org/Graphics/SVG/1.1/DTD/svg11.dtd">
<!-- Generated by graphviz version 2.36.0 (20140111.2315)
 -->
<!-- Title: AllpassExample Pages: 1 -->
<svg width="693pt" height="260pt"
 viewBox="0.00 0.00 693.00 260.00" xmlns="http://www.w3.org/2000/svg" xmlns:xlink="http://www.w3.org/1999/xlink">
<g id="graph0" class="graph" transform="scale(1 1) rotate(0) translate(4 256)">
<title>AllpassExample</title>
<polygon fill="white" stroke="none" points="-4,4 -4,-256 689,-256 689,4 -4,4"/>
<!-- WhiteNoise_0 -->
<g id="node1" class="node"><title>WhiteNoise_0</title>
<ellipse fill="none" stroke="black" cx="517" cy="-234" rx="61.6163" ry="18"/>
<text text-anchor="middle" x="517" y="-230.3" font-family="Times,serif" font-size="14.00">WhiteNoise_0</text>
</g>
<!-- BinaryOpUGen_1 -->
<g id="node2" class="node"><title>BinaryOpUGen_1</title>
<ellipse fill="none" stroke="black" cx="528" cy="-162" rx="75.0904" ry="18"/>
<text text-anchor="middle" x="528" y="-158.3" font-family="Times,serif" font-size="14.00">BinaryOpUGen_1</text>
</g>
<!-- WhiteNoise_0&#45;&gt;BinaryOpUGen_1 -->
<g id="edge1" class="edge"><title>WhiteNoise_0&#45;&gt;BinaryOpUGen_1</title>
<path fill="none" stroke="black" d="M519.719,-215.697C520.931,-207.983 522.388,-198.712 523.739,-190.112"/>
<polygon fill="black" stroke="black" points="527.217,-190.526 525.312,-180.104 520.302,-189.44 527.217,-190.526"/>
</g>
<!-- AllpassC_3 -->
<g id="node9" class="node"><title>AllpassC_3</title>
<ellipse fill="none" stroke="black" cx="318" cy="-90" rx="51.4931" ry="18"/>
<text text-anchor="middle" x="318" y="-86.3" font-family="Times,serif" font-size="14.00">AllpassC_3</text>
</g>
<!-- BinaryOpUGen_1&#45;&gt;AllpassC_3 -->
<g id="edge7" class="edge"><title>BinaryOpUGen_1&#45;&gt;AllpassC_3</title>
<path fill="none" stroke="black" d="M486.008,-147.003C450.669,-135.223 400.22,-118.407 363.839,-106.28"/>
<polygon fill="black" stroke="black" points="364.568,-102.833 353.974,-102.991 362.354,-109.474 364.568,-102.833"/>
</g>
<!-- 0.100000 -->
<g id="node3" class="node"><title>0.100000</title>
<ellipse fill="none" stroke="black" cx="641" cy="-234" rx="44.2946" ry="18"/>
<text text-anchor="middle" x="641" y="-230.3" font-family="Times,serif" font-size="14.00">0.100000</text>
</g>
<!-- 0.100000&#45;&gt;BinaryOpUGen_1 -->
<g id="edge2" class="edge"><title>0.100000&#45;&gt;BinaryOpUGen_1</title>
<path fill="none" stroke="black" d="M617.86,-218.666C602.024,-208.856 580.741,-195.672 562.863,-184.597"/>
<polygon fill="black" stroke="black" points="564.216,-181.317 553.871,-179.026 560.529,-187.268 564.216,-181.317"/>
</g>
<!-- 0.000100 -->
<g id="node4" class="node"><title>0.000100</title>
<ellipse fill="none" stroke="black" cx="150" cy="-234" rx="44.2946" ry="18"/>
<text text-anchor="middle" x="150" y="-230.3" font-family="Times,serif" font-size="14.00">0.000100</text>
</g>
<!-- XLine_2 -->
<g id="node5" class="node"><title>XLine_2</title>
<ellipse fill="none" stroke="black" cx="248" cy="-162" rx="42.3701" ry="18"/>
<text text-anchor="middle" x="248" y="-158.3" font-family="Times,serif" font-size="14.00">XLine_2</text>
</g>
<!-- 0.000100&#45;&gt;XLine_2 -->
<g id="edge3" class="edge"><title>0.000100&#45;&gt;XLine_2</title>
<path fill="none" stroke="black" d="M171.265,-217.811C185.1,-207.929 203.333,-194.905 218.555,-184.032"/>
<polygon fill="black" stroke="black" points="221.011,-186.579 227.114,-177.919 216.942,-180.883 221.011,-186.579"/>
</g>
<!-- XLine_2&#45;&gt;AllpassC_3 -->
<g id="edge9" class="edge"><title>XLine_2&#45;&gt;AllpassC_3</title>
<path fill="none" stroke="black" d="M263.884,-145.116C272.884,-136.116 284.318,-124.682 294.354,-114.646"/>
<polygon fill="black" stroke="black" points="297.097,-116.853 301.693,-107.307 292.147,-111.903 297.097,-116.853"/>
</g>
<!-- 0.010000 -->
<g id="node6" class="node"><title>0.010000</title>
<ellipse fill="none" stroke="black" cx="370" cy="-234" rx="44.2946" ry="18"/>
<text text-anchor="middle" x="370" y="-230.3" font-family="Times,serif" font-size="14.00">0.010000</text>
</g>
<!-- 0.010000&#45;&gt;XLine_2 -->
<g id="edge4" class="edge"><title>0.010000&#45;&gt;XLine_2</title>
<path fill="none" stroke="black" d="M345.605,-219.003C327.153,-208.415 301.609,-193.759 281.282,-182.096"/>
<polygon fill="black" stroke="black" points="282.769,-178.914 272.353,-176.973 279.285,-184.986 282.769,-178.914"/>
</g>
<!-- 0.010000&#45;&gt;AllpassC_3 -->
<g id="edge8" class="edge"><title>0.010000&#45;&gt;AllpassC_3</title>
<path fill="none" stroke="black" d="M357.719,-216.617C350.701,-206.53 342.274,-193.067 337,-180 328.98,-160.13 324.125,-136.335 321.333,-118.35"/>
<polygon fill="black" stroke="black" points="324.768,-117.65 319.884,-108.248 317.839,-118.643 324.768,-117.65"/>
</g>
<!-- 20.000000 -->
<g id="node7" class="node"><title>20.000000</title>
<ellipse fill="none" stroke="black" cx="260" cy="-234" rx="48.1437" ry="18"/>
<text text-anchor="middle" x="260" y="-230.3" font-family="Times,serif" font-size="14.00">20.000000</text>
</g>
<!-- 20.000000&#45;&gt;XLine_2 -->
<g id="edge5" class="edge"><title>20.000000&#45;&gt;XLine_2</title>
<path fill="none" stroke="black" d="M257.034,-215.697C255.711,-207.983 254.122,-198.712 252.648,-190.112"/>
<polygon fill="black" stroke="black" points="256.072,-189.369 250.932,-180.104 249.172,-190.552 256.072,-189.369"/>
</g>
<!-- 0.000000 -->
<g id="node8" class="node"><title>0.000000</title>
<ellipse fill="none" stroke="black" cx="44" cy="-234" rx="44.2946" ry="18"/>
<text text-anchor="middle" x="44" y="-230.3" font-family="Times,serif" font-size="14.00">0.000000</text>
</g>
<!-- 0.000000&#45;&gt;XLine_2 -->
<g id="edge6" class="edge"><title>0.000000&#45;&gt;XLine_2</title>
<path fill="none" stroke="black" d="M76.7761,-221.753C112.032,-209.656 168.18,-190.389 206.495,-177.242"/>
<polygon fill="black" stroke="black" points="207.989,-180.429 216.312,-173.873 205.718,-173.808 207.989,-180.429"/>
</g>
<!-- Out_4 -->
<g id="node11" class="node"><title>Out_4</title>
<ellipse fill="none" stroke="black" cx="223" cy="-18" rx="32.2457" ry="18"/>
<text text-anchor="middle" x="223" y="-14.3" font-family="Times,serif" font-size="14.00">Out_4</text>
</g>
<!-- 0.000000&#45;&gt;Out_4 -->
<g id="edge11" class="edge"><title>0.000000&#45;&gt;Out_4</title>
<path fill="none" stroke="black" d="M57.7486,-216.563C89.2812,-178.865 166.894,-86.0764 203.409,-42.4213"/>
<polygon fill="black" stroke="black" points="206.203,-44.5369 209.934,-34.6208 200.833,-40.0457 206.203,-44.5369"/>
</g>
<!-- AllpassC_3&#45;&gt;Out_4 -->
<g id="edge12" class="edge"><title>AllpassC_3&#45;&gt;Out_4</title>
<path fill="none" stroke="black" d="M296.916,-73.4647C283.116,-63.2963 264.955,-49.9139 250.087,-38.9592"/>
<polygon fill="black" stroke="black" points="251.899,-35.9467 241.772,-32.8324 247.747,-41.5821 251.899,-35.9467"/>
</g>
<!-- 0.200000 -->
<g id="node10" class="node"><title>0.200000</title>
<ellipse fill="none" stroke="black" cx="390" cy="-162" rx="44.2946" ry="18"/>
<text text-anchor="middle" x="390" y="-158.3" font-family="Times,serif" font-size="14.00">0.200000</text>
</g>
<!-- 0.200000&#45;&gt;AllpassC_3 -->
<g id="edge10" class="edge"><title>0.200000&#45;&gt;AllpassC_3</title>
<path fill="none" stroke="black" d="M373.662,-145.116C364.314,-136.027 352.414,-124.458 342.018,-114.351"/>
<polygon fill="black" stroke="black" points="344.383,-111.768 334.773,-107.307 339.503,-116.787 344.383,-111.768"/>
</g>
</g>
</svg>
