<?xml version="1.0" encoding="UTF-8" standalone="no"?>
<!DOCTYPE svg PUBLIC "-//W3C//DTD SVG 1.1//EN"
 "http://www.w3.org/Graphics/SVG/1.1/DTD/svg11.dtd">
<!-- Generated by graphviz version 2.36.0 (20140111.2315)
 -->
<!-- Title: Beats Pages: 1 -->
<svg width="292pt" height="332pt"
 viewBox="0.00 0.00 292.00 332.00" xmlns="http://www.w3.org/2000/svg" xmlns:xlink="http://www.w3.org/1999/xlink">
<g id="graph0" class="graph" transform="scale(1 1) rotate(0) translate(4 328)">
<title>Beats</title>
<polygon fill="white" stroke="none" points="-4,4 -4,-328 288,-328 288,4 -4,4"/>
<!-- 0.200000 -->
<g id="node1" class="node"><title>0.200000</title>
<ellipse fill="none" stroke="black" cx="44" cy="-306" rx="44.2946" ry="18"/>
<text text-anchor="middle" x="44" y="-302.3" font-family="Times,serif" font-size="14.00">0.200000</text>
</g>
<!-- SinOsc_0 -->
<g id="node2" class="node"><title>SinOsc_0</title>
<ellipse fill="none" stroke="black" cx="44" cy="-234" rx="44.271" ry="18"/>
<text text-anchor="middle" x="44" y="-230.3" font-family="Times,serif" font-size="14.00">SinOsc_0</text>
</g>
<!-- 0.200000&#45;&gt;SinOsc_0 -->
<g id="edge1" class="edge"><title>0.200000&#45;&gt;SinOsc_0</title>
<path fill="none" stroke="black" d="M44,-287.697C44,-279.983 44,-270.712 44,-262.112"/>
<polygon fill="black" stroke="black" points="47.5001,-262.104 44,-252.104 40.5001,-262.104 47.5001,-262.104"/>
</g>
<!-- BinaryOpUGen_1 -->
<g id="node4" class="node"><title>BinaryOpUGen_1</title>
<ellipse fill="none" stroke="black" cx="137" cy="-162" rx="75.0904" ry="18"/>
<text text-anchor="middle" x="137" y="-158.3" font-family="Times,serif" font-size="14.00">BinaryOpUGen_1</text>
</g>
<!-- SinOsc_0&#45;&gt;BinaryOpUGen_1 -->
<g id="edge3" class="edge"><title>SinOsc_0&#45;&gt;BinaryOpUGen_1</title>
<path fill="none" stroke="black" d="M64.1796,-217.811C76.6553,-208.421 92.9,-196.194 106.88,-185.671"/>
<polygon fill="black" stroke="black" points="109.353,-188.19 115.238,-179.38 105.143,-182.598 109.353,-188.19"/>
</g>
<!-- 0.000000 -->
<g id="node3" class="node"><title>0.000000</title>
<ellipse fill="none" stroke="black" cx="240" cy="-306" rx="44.2946" ry="18"/>
<text text-anchor="middle" x="240" y="-302.3" font-family="Times,serif" font-size="14.00">0.000000</text>
</g>
<!-- 0.000000&#45;&gt;SinOsc_0 -->
<g id="edge2" class="edge"><title>0.000000&#45;&gt;SinOsc_0</title>
<path fill="none" stroke="black" d="M207.635,-293.441C174.34,-281.55 122.341,-262.979 85.919,-249.971"/>
<polygon fill="black" stroke="black" points="86.6824,-246.527 76.0877,-246.46 84.328,-253.119 86.6824,-246.527"/>
</g>
<!-- SinOsc_2 -->
<g id="node6" class="node"><title>SinOsc_2</title>
<ellipse fill="none" stroke="black" cx="205" cy="-90" rx="44.271" ry="18"/>
<text text-anchor="middle" x="205" y="-86.3" font-family="Times,serif" font-size="14.00">SinOsc_2</text>
</g>
<!-- 0.000000&#45;&gt;SinOsc_2 -->
<g id="edge6" class="edge"><title>0.000000&#45;&gt;SinOsc_2</title>
<path fill="none" stroke="black" d="M238.974,-287.921C236.978,-258.348 231.788,-195.802 221,-144 219.189,-135.303 216.6,-125.978 214.031,-117.612"/>
<polygon fill="black" stroke="black" points="217.335,-116.452 210.961,-107.989 210.666,-118.58 217.335,-116.452"/>
</g>
<!-- Out_3 -->
<g id="node7" class="node"><title>Out_3</title>
<ellipse fill="none" stroke="black" cx="241" cy="-18" rx="32.2457" ry="18"/>
<text text-anchor="middle" x="241" y="-14.3" font-family="Times,serif" font-size="14.00">Out_3</text>
</g>
<!-- 0.000000&#45;&gt;Out_3 -->
<g id="edge7" class="edge"><title>0.000000&#45;&gt;Out_3</title>
<path fill="none" stroke="black" d="M244.008,-287.938C252.501,-249.286 270.543,-152.169 258,-72 256.62,-63.1765 254.02,-53.8161 251.262,-45.4564"/>
<polygon fill="black" stroke="black" points="254.507,-44.1335 247.89,-35.8592 247.903,-46.4541 254.507,-44.1335"/>
</g>
<!-- BinaryOpUGen_1&#45;&gt;SinOsc_2 -->
<g id="edge5" class="edge"><title>BinaryOpUGen_1&#45;&gt;SinOsc_2</title>
<path fill="none" stroke="black" d="M153.115,-144.411C161.878,-135.39 172.857,-124.088 182.457,-114.207"/>
<polygon fill="black" stroke="black" points="185.011,-116.6 189.469,-106.988 179.99,-111.722 185.011,-116.6"/>
</g>
<!-- 440.000000 -->
<g id="node5" class="node"><title>440.000000</title>
<ellipse fill="none" stroke="black" cx="159" cy="-234" rx="52.4675" ry="18"/>
<text text-anchor="middle" x="159" y="-230.3" font-family="Times,serif" font-size="14.00">440.000000</text>
</g>
<!-- 440.000000&#45;&gt;BinaryOpUGen_1 -->
<g id="edge4" class="edge"><title>440.000000&#45;&gt;BinaryOpUGen_1</title>
<path fill="none" stroke="black" d="M153.674,-216.055C151.225,-208.261 148.258,-198.822 145.511,-190.079"/>
<polygon fill="black" stroke="black" points="148.767,-188.766 142.429,-180.275 142.089,-190.865 148.767,-188.766"/>
</g>
<!-- SinOsc_2&#45;&gt;Out_3 -->
<g id="edge8" class="edge"><title>SinOsc_2&#45;&gt;Out_3</title>
<path fill="none" stroke="black" d="M213.715,-72.055C217.915,-63.8866 223.045,-53.9116 227.719,-44.8244"/>
<polygon fill="black" stroke="black" points="230.905,-46.2826 232.366,-35.789 224.68,-43.0812 230.905,-46.2826"/>
</g>
</g>
</svg>
