<?xml version="1.0" encoding="UTF-8" standalone="no"?>
<!DOCTYPE svg PUBLIC "-//W3C//DTD SVG 1.1//EN"
 "http://www.w3.org/Graphics/SVG/1.1/DTD/svg11.dtd">
<!-- Generated by graphviz version 2.39.20150416.0445 (20150416.0445)
 -->
<!-- Title: Beats Pages: 1 -->
<svg width="265pt" height="332pt"
 viewBox="0.00 0.00 264.94 332.00" xmlns="http://www.w3.org/2000/svg" xmlns:xlink="http://www.w3.org/1999/xlink">
<g id="graph0" class="graph" transform="scale(1 1) rotate(0) translate(4 328)">
<title>Beats</title>
<polygon fill="white" stroke="transparent" points="-4,4 -4,-328 260.943,-328 260.943,4 -4,4"/>
<!-- 0.000000 -->
<g id="node1" class="node"><title>0.000000</title>
<text text-anchor="middle" x="222.146" y="-14.3" font-family="Times,serif" font-size="14.00">0.000000</text>
</g>
<!-- SinOsc_0 -->
<g id="node2" class="node"><title>SinOsc_0</title>
<ellipse fill="none" stroke="black" cx="46.1459" cy="-90" rx="46.2923" ry="18"/>
<text text-anchor="middle" x="46.1459" y="-86.3" font-family="Times,serif" font-size="14.00">SinOsc_0</text>
</g>
<!-- 0.000000&#45;&gt;SinOsc_0 -->
<g id="edge1" class="edge"><title>0.000000&#45;&gt;SinOsc_0</title>
<path fill="none" stroke="black" d="M187.374,-32.2249C158.718,-43.9476 118.001,-60.6047 87.6433,-73.0238"/>
<polygon fill="black" stroke="black" points="86.1095,-69.8696 78.1793,-76.8954 88.76,-76.3485 86.1095,-69.8696"/>
</g>
<!-- SinOsc_2 -->
<g id="node6" class="node"><title>SinOsc_2</title>
<ellipse fill="none" stroke="black" cx="186.146" cy="-234" rx="46.2923" ry="18"/>
<text text-anchor="middle" x="186.146" y="-230.3" font-family="Times,serif" font-size="14.00">SinOsc_2</text>
</g>
<!-- 0.000000&#45;&gt;SinOsc_2 -->
<g id="edge5" class="edge"><title>0.000000&#45;&gt;SinOsc_2</title>
<path fill="none" stroke="black" d="M221.134,-36.1607C219.205,-66.3149 214.171,-128.496 203.146,-180 201.303,-188.609 198.668,-197.805 196.022,-206.123"/>
<polygon fill="black" stroke="black" points="192.66,-205.142 192.84,-215.736 199.305,-207.342 192.66,-205.142"/>
</g>
<!-- Out_3 -->
<g id="node7" class="node"><title>Out_3</title>
<ellipse fill="none" stroke="black" cx="223.146" cy="-306" rx="33.5952" ry="18"/>
<text text-anchor="middle" x="223.146" y="-302.3" font-family="Times,serif" font-size="14.00">Out_3</text>
</g>
<!-- 0.000000&#45;&gt;Out_3 -->
<g id="edge8" class="edge"><title>0.000000&#45;&gt;Out_3</title>
<path fill="none" stroke="black" d="M226.552,-36.0255C235.544,-75.4368 254.106,-172.139 241.146,-252 239.69,-260.974 236.955,-270.472 234.05,-278.959"/>
<polygon fill="black" stroke="black" points="230.758,-277.77 230.626,-288.364 237.335,-280.165 230.758,-277.77"/>
</g>
<!-- BinaryOpUGen_1 -->
<g id="node5" class="node"><title>BinaryOpUGen_1</title>
<ellipse fill="none" stroke="black" cx="117.146" cy="-162" rx="77.1866" ry="18"/>
<text text-anchor="middle" x="117.146" y="-158.3" font-family="Times,serif" font-size="14.00">BinaryOpUGen_1</text>
</g>
<!-- SinOsc_0&#45;&gt;BinaryOpUGen_1 -->
<g id="edge4" class="edge"><title>SinOsc_0&#45;&gt;BinaryOpUGen_1</title>
<path fill="none" stroke="black" d="M62.9719,-107.063C71.7949,-116.01 82.7692,-127.139 92.5286,-137.036"/>
<polygon fill="black" stroke="black" points="90.1856,-139.645 99.6992,-144.308 95.1699,-134.73 90.1856,-139.645"/>
</g>
<!-- 0.200000 -->
<g id="node3" class="node"><title>0.200000</title>
<text text-anchor="middle" x="46.1459" y="-14.3" font-family="Times,serif" font-size="14.00">0.200000</text>
</g>
<!-- 0.200000&#45;&gt;SinOsc_0 -->
<g id="edge2" class="edge"><title>0.200000&#45;&gt;SinOsc_0</title>
<path fill="none" stroke="black" d="M46.1459,-36.1686C46.1459,-43.869 46.1459,-53.0257 46.1459,-61.5834"/>
<polygon fill="black" stroke="black" points="42.646,-61.5867 46.1459,-71.5867 49.646,-61.5868 42.646,-61.5867"/>
</g>
<!-- 440.000000 -->
<g id="node4" class="node"><title>440.000000</title>
<text text-anchor="middle" x="152.146" y="-86.3" font-family="Times,serif" font-size="14.00">440.000000</text>
</g>
<!-- 440.000000&#45;&gt;BinaryOpUGen_1 -->
<g id="edge3" class="edge"><title>440.000000&#45;&gt;BinaryOpUGen_1</title>
<path fill="none" stroke="black" d="M143.314,-108.169C139.388,-116.245 134.683,-125.924 130.352,-134.833"/>
<polygon fill="black" stroke="black" points="127.078,-133.563 125.854,-144.087 133.374,-136.623 127.078,-133.563"/>
</g>
<!-- BinaryOpUGen_1&#45;&gt;SinOsc_2 -->
<g id="edge6" class="edge"><title>BinaryOpUGen_1&#45;&gt;SinOsc_2</title>
<path fill="none" stroke="black" d="M134.202,-179.798C142.767,-188.735 153.279,-199.704 162.601,-209.431"/>
<polygon fill="black" stroke="black" points="160.315,-212.105 169.761,-216.903 165.369,-207.261 160.315,-212.105"/>
</g>
<!-- SinOsc_2&#45;&gt;Out_3 -->
<g id="edge7" class="edge"><title>SinOsc_2&#45;&gt;Out_3</title>
<path fill="none" stroke="black" d="M195.292,-251.798C199.549,-260.081 204.702,-270.109 209.412,-279.275"/>
<polygon fill="black" stroke="black" points="206.421,-281.112 214.105,-288.407 212.647,-277.913 206.421,-281.112"/>
</g>
</g>
</svg>
